<svg width="10" height="6" viewBox="0 0 10 6" fill="none" xmlns="http://www.w3.org/2000/svg">
<path d="M9.7194 5.72069C9.54166 5.89959 9.30123 6 9.05062 6C8.80001 6 8.55958 5.89959 8.38184 5.72069L4.97628 2.32043L1.61816 5.72069C1.44042 5.89959 1.19999 6 0.94938 6C0.698767 6 0.458337 5.89959 0.280601 5.72069C0.191688 5.63139 0.121116 5.52516 0.0729554 5.40811C0.0247951 5.29106 0 5.16552 0 5.03871C0 4.91191 0.0247951 4.78637 0.0729554 4.66932C0.121116 4.55227 0.191688 4.44604 0.280601 4.35674L4.30276 0.284122C4.39095 0.194093 4.49587 0.122636 4.61147 0.0738711C4.72706 0.0251064 4.85105 0 4.97628 0C5.10151 0 5.2255 0.0251064 5.3411 0.0738711C5.4567 0.122636 5.56162 0.194093 5.64981 0.284122L9.7194 4.35674C9.80831 4.44604 9.87888 4.55227 9.92704 4.66932C9.9752 4.78637 10 4.91191 10 5.03871C10 5.16552 9.9752 5.29106 9.92704 5.40811C9.87888 5.52516 9.80831 5.63139 9.7194 5.72069Z" fill="#6A6A6A"/>
</svg>
