<svg width="19" height="13" viewBox="0 0 19 13" fill="none" xmlns="http://www.w3.org/2000/svg">
<path d="M18.5485 5.34906C18.6927 5.50341 18.8058 5.68542 18.8812 5.88465C19.0396 6.27978 19.0396 6.72299 18.8812 7.11812C18.8058 7.31735 18.6927 7.49936 18.5485 7.65371L13.7966 12.5227C13.4983 12.8283 13.0938 13 12.6719 13C12.2501 13 11.8456 12.8283 11.5473 12.5227C11.249 12.2171 11.0815 11.8026 11.0815 11.3704C11.0815 10.9382 11.249 10.5237 11.5473 10.218L13.6065 8.12438H1.58399C1.16389 8.12438 0.761 7.95339 0.463943 7.64901C0.166887 7.34464 0 6.93183 0 6.50139C0 6.07094 0.166887 5.65813 0.463943 5.35376C0.761 5.04939 1.16389 4.87839 1.58399 4.87839H13.6065L11.5473 2.78473C11.3988 2.63385 11.281 2.45435 11.2006 2.25657C11.1202 2.05879 11.0788 1.84666 11.0788 1.6324C11.0788 1.41815 11.1202 1.20602 11.2006 1.00824C11.281 0.810462 11.3988 0.630957 11.5473 0.480079C11.6946 0.327958 11.8697 0.207217 12.0628 0.12482C12.2558 0.0424226 12.4628 0 12.6719 0C12.881 0 13.0881 0.0424226 13.2811 0.12482C13.4741 0.207217 13.6493 0.327958 13.7966 0.480079L18.5485 5.34906Z" fill="#13927E"/>
</svg>
