<svg width="5" height="8" viewBox="0 0 5 8" fill="none" xmlns="http://www.w3.org/2000/svg">
<path d="M4.76323 3.46052L1.36938 0.225675C1.29497 0.154166 1.20644 0.0974081 1.1089 0.0586748C1.01136 0.0199416 0.906738 0 0.801071 0C0.695404 0 0.590782 0.0199416 0.493242 0.0586748C0.395701 0.0974081 0.307172 0.154166 0.232761 0.225675C0.0836789 0.36862 0 0.561988 0 0.763544C0 0.965101 0.0836789 1.15847 0.232761 1.30141L3.06631 4.00221L0.232761 6.703C0.0836789 6.84594 0 7.03931 0 7.24087C0 7.44242 0.0836789 7.63579 0.232761 7.77874C0.307554 7.84945 0.396255 7.90539 0.493778 7.94336C0.591301 7.98132 0.695728 8.00057 0.801071 7.99999C0.906414 8.00057 1.01084 7.98132 1.10836 7.94336C1.20589 7.90539 1.29459 7.84945 1.36938 7.77874L4.76323 4.54389C4.83826 4.47296 4.8978 4.38858 4.93844 4.29561C4.97908 4.20264 5 4.10292 5 4.00221C5 3.90149 4.97908 3.80177 4.93844 3.7088C4.8978 3.61583 4.83826 3.53145 4.76323 3.46052Z" fill="#CCCCCC"/>
</svg>
