<svg width="10" height="12" viewBox="0 0 10 12" fill="none" xmlns="http://www.w3.org/2000/svg">
<path d="M10 11.1519V4.66431C10 4.42686 9.9 4.19788 9.725 4.03675L5.55833 0.220495C5.4 0.0678447 5.2 0 5 0C4.8 0 4.6 0.0763253 4.44167 0.220495L0.275 4.03675C0.0999999 4.1894 0 4.41838 0 4.66431V11.1519C0 11.6184 0.375 12 0.833333 12H2.5C2.95833 12 3.33333 11.6184 3.33333 11.1519V7.75972H6.66667V11.1519C6.66667 11.6184 7.04167 12 7.5 12H9.16667C9.625 12 10 11.6184 10 11.1519Z" fill="#6A6A6A"/>
</svg>
